<svg xmlns="http://www.w3.org/2000/svg" xmlns:xlink="http://www.w3.org/1999/xlink" version="1.1" x="0px" y="0px" viewBox="0 0 64 80" style="enable-background:new 0 0 64 64;" xml:space="preserve"><path d="M1,59h11h4c0.553,0,1-0.447,1-1h1.764l10.691,5.346c0.462,0.231,0.963,0.347,1.462,0.347c0.569,0,1.137-0.149,1.646-0.446  L54.379,50.52c1-0.583,1.621-1.664,1.621-2.822c0-0.967-0.425-1.879-1.165-2.502c-0.739-0.622-1.713-0.884-2.663-0.719L32.34,47.926  l-5.633-5.633C26.52,42.105,26.266,42,26,42h-9c0-0.553-0.447-1-1-1h-4H1c-0.553,0-1,0.447-1,1v16C0,58.553,0.447,59,1,59z   M25.586,44l7.879,7.879C33.805,52.219,34,52.69,34,53.172C34,54.18,33.18,55,32.172,55c-0.481,0-0.953-0.195-1.293-0.535  l-5.172-5.172l-1.414,1.414l5.172,5.172C30.188,56.602,31.149,57,32.172,57C34.282,57,36,55.282,36,53.172  c0-1.022-0.398-1.984-1.121-2.707l-0.81-0.81l18.444-3.208c0.373-0.065,0.747,0.037,1.034,0.279C53.835,46.968,54,47.322,54,47.697  c0,0.449-0.241,0.869-0.629,1.095L31.556,61.519c-0.37,0.216-0.821,0.23-1.206,0.038l-10.902-5.451C19.309,56.036,19.155,56,19,56  h-2V44H25.586z M15,57h-2V43h2V57z M2,43h9v14H2V43z"/><path d="M37,42c11.579,0,21-9.421,21-21S48.579,0,37,0S16,9.421,16,21S25.421,42,37,42z M37,2c10.477,0,19,8.523,19,19  s-8.523,19-19,19s-19-8.523-19-19S26.523,2,37,2z"/><path d="M37,38c9.374,0,17-7.626,17-17S46.374,4,37,4s-17,7.626-17,17S27.626,38,37,38z M37,6c8.271,0,15,6.729,15,15  s-6.729,15-15,15s-15-6.729-15-15S28.729,6,37,6z"/><path d="M38,25h-2c-1.103,0-2-0.897-2-2h-2c0,2.206,1.794,4,4,4v2h2v-2c2.206,0,4-1.794,4-4s-1.794-4-4-4h-2c-1.103,0-2-0.897-2-2  s0.897-2,2-2h2c1.103,0,2,0.897,2,2h2c0-2.206-1.794-4-4-4v-2h-2v2c-2.206,0-4,1.794-4,4s1.794,4,4,4h2c1.103,0,2,0.897,2,2  S39.103,25,38,25z"/><path d="M27,24c1.654,0,3-1.346,3-3s-1.346-3-3-3s-3,1.346-3,3S25.346,24,27,24z M27,20c0.552,0,1,0.448,1,1s-0.448,1-1,1  s-1-0.448-1-1S26.448,20,27,20z"/><path d="M47,24c1.654,0,3-1.346,3-3s-1.346-3-3-3s-3,1.346-3,3S45.346,24,47,24z M47,20c0.552,0,1,0.448,1,1s-0.448,1-1,1  s-1-0.448-1-1S46.448,20,47,20z"/><rect x="36" y="31" width="2" height="2"/><rect x="40" y="31" width="2" height="2"/><rect x="32" y="31" width="2" height="2"/><rect x="12" y="20" width="2" height="2"/><rect x="58" y="36" width="2" height="2"/><rect x="54" y="36" width="2" height="2"/><rect x="8" y="20" width="2" height="2"/><rect x="4" y="20" width="2" height="2"/><rect x="50" y="60" width="2" height="2"/><rect x="54" y="60" width="2" height="2"/><rect x="58" y="60" width="2" height="2"/><rect x="62" y="60" width="2" height="2"/><rect x="46" y="60" width="2" height="2"/><rect x="42" y="60" width="2" height="2"/><rect x="4" y="24" width="2" height="2"/><rect x="62" y="56" width="2" height="2"/><rect x="62" y="52" width="2" height="2"/><rect x="62" y="48" width="2" height="2"/><rect x="62" y="44" width="2" height="2"/><rect x="62" y="40" width="2" height="2"/><rect x="62" y="36" width="2" height="2"/><rect x="4" y="28" width="2" height="2"/><rect x="4" y="32" width="2" height="2"/><rect x="4" y="36" width="2" height="2"/><text x="0" y="79" fill="#000000" font-size="5px" font-weight="bold" font-family="'Helvetica Neue', Helvetica, Arial-Unicode, Arial, Sans-serif">Created by Becris</text><text x="0" y="84" fill="#000000" font-size="5px" font-weight="bold" font-family="'Helvetica Neue', Helvetica, Arial-Unicode, Arial, Sans-serif">from the Noun Project</text></svg>