<svg xmlns="http://www.w3.org/2000/svg" shape-rendering="geometricPrecision" text-rendering="geometricPrecision" image-rendering="optimizeQuality" fill-rule="evenodd" clip-rule="evenodd" viewBox="0 0 419 511.67"><path d="M93.01 39.4h46.12C141.84 17.18 159.77 0 181.52 0c21.61 0 39.45 16.95 42.34 38.94l46.76.46c2.61 0 4.7 2.1 4.7 4.71v51.84c0 2.61-2.09 4.7-4.7 4.7H93.06c-2.57 0-4.71-2.09-4.71-4.7V44.11a4.632 4.632 0 0 1 4.66-4.71zm221.96 264.22c57.47 0 104.03 46.58 104.03 104.02 0 57.47-46.59 104.03-104.03 104.03-57.47 0-104.02-46.59-104.02-104.03 0-57.47 46.58-104.02 104.02-104.02zm-4.63 47.92a49.824 49.824 0 0 1 35.18 14.59 49.304 49.304 0 0 1 10.79 16.13 49.614 49.614 0 0 1 3.79 19.05c0 4.91-.72 9.7-2.07 14.21a50.276 50.276 0 0 1-4.57 10.61l14.98 16.49a3.616 3.616 0 0 1-.22 5.1l-13.78 12.58c-1.47 1.34-3.76 1.24-5.09-.22l-14.11-15.7a49.28 49.28 0 0 1-10.49 4.56l-.13.03c-4.54 1.37-9.34 2.1-14.28 2.1a49.92 49.92 0 0 1-19-3.78 50.153 50.153 0 0 1-16.18-10.79 49.68 49.68 0 0 1-10.8-16.15 49.564 49.564 0 0 1-3.79-19.04c0-6.68 1.36-13.12 3.79-19.01a50.11 50.11 0 0 1 10.79-16.17 49.61 49.61 0 0 1 16.14-10.81 49.795 49.795 0 0 1 19.05-3.78zm21.98 27.78c-2.86-2.86-6.3-5.19-10.11-6.77l-.18-.07a31.054 31.054 0 0 0-11.69-2.27c-4.23 0-8.26.85-11.88 2.34a31.4 31.4 0 0 0-10.11 6.77c-5.61 5.62-9.11 13.4-9.11 21.99 0 4.23.85 8.26 2.33 11.88 1.61 3.81 3.92 7.24 6.78 10.1 2.88 2.87 6.31 5.2 10.09 6.77 3.65 1.49 7.67 2.34 11.9 2.34 4.24 0 8.26-.85 11.88-2.34 3.79-1.58 7.24-3.91 10.1-6.77a31.52 31.52 0 0 0 6.77-10.1 31.03 31.03 0 0 0 2.34-11.88c0-4.23-.84-8.26-2.34-11.88l-.08-.19c-1.55-3.71-3.85-7.08-6.69-9.92zM41.73 59.28h23.93v24.37H41.73c-4.77 0-9.12 1.97-12.25 5.1-3.14 3.14-5.1 7.48-5.1 12.24v315.52c0 4.75 1.96 9.1 5.1 12.24 3.15 3.15 7.51 5.12 12.25 5.12h142.61c1.69 8.44 4.17 16.6 7.37 24.38H41.73c-11.45 0-21.9-4.71-29.47-12.28C4.72 438.43 0 427.98 0 416.51V100.99c0-11.48 4.7-21.91 12.25-29.46 7.55-7.55 17.99-12.25 29.48-12.25zm297.54 217.35V100.99c0-4.77-1.96-9.11-5.09-12.26a17.36 17.36 0 0 0-12.26-5.08H298V59.28h23.92c11.44 0 21.86 4.71 29.41 12.25 7.61 7.61 12.32 18.04 12.32 29.46V283.6c-7.79-3.07-15.95-5.42-24.38-6.97zm-206.74-8.06c-7.13 0-12.93-5.79-12.93-12.92s5.8-12.93 12.93-12.93h142.82c7.13 0 12.92 5.8 12.92 12.93s-5.79 12.92-12.92 12.92H132.53zM89.5 241.21c7.98 0 14.44 6.47 14.44 14.44 0 7.98-6.46 14.44-14.44 14.44-7.97 0-14.43-6.46-14.43-14.44 0-7.97 6.46-14.44 14.43-14.44zm0 78.62c7.98 0 14.44 6.47 14.44 14.44 0 7.98-6.46 14.44-14.44 14.44-7.97 0-14.43-6.46-14.43-14.44 0-7.97 6.46-14.44 14.43-14.44zm43.04 27.36c-7.13 0-12.93-5.79-12.93-12.92s5.8-12.93 12.93-12.93h80.96a133.913 133.913 0 0 0-17.26 25.85h-63.7zM89.5 162.61c7.98 0 14.44 6.46 14.44 14.43 0 7.98-6.46 14.44-14.44 14.44-7.97 0-14.43-6.46-14.43-14.44 0-7.97 6.46-14.43 14.43-14.43zm43.03 27.35c-7.13 0-12.93-5.79-12.93-12.92 0-7.14 5.8-12.93 12.93-12.93h142.82c7.13 0 12.92 5.79 12.92 12.93 0 7.13-5.79 12.92-12.92 12.92H132.53zm48.5-169.8c12.29 0 22.26 9.96 22.26 22.27 0 12.29-9.97 22.25-22.26 22.25-12.3 0-22.26-9.96-22.26-22.25 0-12.31 9.96-22.27 22.26-22.27z"/></svg>